<svg xmlns="http://www.w3.org/2000/svg" width="48" height="48" viewBox="0 0 48 48">
  <!-- White Transparent Circle Background -->
  <circle cx="24" cy="24" r="24" fill="rgba(255, 255, 255, 0.2)" />

  <!-- Centered Home Icon with manual offset -->
  <g transform="translate(25, 25) scale(1.2)">
    <path d="M13.5 1.515a3 3 0 0 0-3 0L3 5.845a2 2 0 0 0-1 1.732V21a1 1 0 0 0 1 1h6a1 1 0 0 0 1-1v-6h4v6a1 1 0 0 0 1 1h6a1 1 0 0 0 1-1V7.577a2 2 0 0 0-1-1.732l-7.5-4.33z"
          fill="white" transform="translate(-12, -12)" />
  </g>
</svg>
